# xmcd
#
# Track frame offsets: 
#        150
#        23061
#        43757
#        80647
#        92781
#        112774
#        131591
#        177985
#        210694
#        232323
#
# Disc length: 3340 seconds
#
# Revision: 0
# Processed by: cddbd v1.5.2PL0 Copyright (c) Steve Scherf et al.
# Submitted via: ExactAudioCopy v0.95b3
#
DISCID=850d0a0a
DTITLE=Fairport Convention  - Liege and Lief (2002 Remaster)  FLAC
DYEAR=1900
DGENRE=
TTITLE0=Come All Ye
TTITLE1=Reynardine
TTITLE2=Matty Groves
TTITLE3=Farewell, Farewell
TTITLE4=The Deserter
TTITLE5=Medley - The Lark In The Morning - Rakish Paddy - Foxhunters' 
TTITLE5=Jig - Toss The Feathers
TTITLE6=Quiet Joys Of Brotherhood [Take 1 - Previously Unreleased]
TTITLE7=Tam Lin
TTITLE8=Crazy Man Michael
TTITLE9=Sir Patrick Spens [Sandy Denny Vocal Version - Previously Unre
TTITLE9=leased]
EXTD=
EXTT0=
EXTT1=
EXTT2=
EXTT3=
EXTT4=
EXTT5=
EXTT6=
EXTT7=
EXTT8=
EXTT9=
PLAYORDER=
